<svg width="158" height="170" viewBox="0 0 158 170" fill="none" xmlns="http://www.w3.org/2000/svg">
<path d="M56.1722 155.155C53.7258 149.563 51.3959 144.145 48.8912 138.377C53.784 135.697 57.8031 136.28 60.0748 140.533C64.2686 148.514 67.8217 156.845 71.9573 165.758C69.6857 166.457 68.0548 167.331 66.4238 167.448C55.7645 168.322 45.0469 169.312 34.3876 169.603C31.3005 169.662 28.0968 167.622 24.9514 166.574C25.1262 165.583 25.301 164.593 25.4757 163.603C32.4654 162.962 39.4551 162.321 48.1923 161.505C42.5423 159.059 38.4649 157.602 34.6788 155.563C13.0689 143.853 -1.2017 127.017 0.0797487 101.151C1.3612 75.226 16.2143 57.8653 39.8046 49.7675C55.648 44.2912 72.8893 42.7183 89.6064 39.8637C103.236 37.5334 116.575 34.737 128.516 27.28C137.311 21.8038 144.126 14.6382 146.806 4.38486C147.854 0.365094 150.242 -0.974858 153.271 0.714611C155.193 1.8215 157.29 5.2005 157.057 7.23952C155.95 15.9781 150.708 22.5612 144.01 28.0374C128.924 40.3298 110.75 43.8835 92.1693 46.7381C78.8306 48.7771 65.3171 50.4083 52.4443 54.1368C25.7087 61.8268 10.0983 83.7316 11.438 109.598C12.603 131.852 34.5041 154.398 56.2887 155.272L56.1722 155.155Z" fill="#ced4da"/>
</svg>
