<svg width="15" height="29" viewBox="0 0 15 29" fill="none" xmlns="http://www.w3.org/2000/svg">
<path d="M4.58212 13.8119C3.01608 13.7248 1.50804 13.6668 0 13.5798C0.261007 12.0131 0.145013 10.2434 0.870031 8.96687C2.34907 6.3558 4.14711 3.88978 6.03216 1.56882C7.88821 -0.694108 9.42526 -0.491024 10.8463 2.06203C12.2673 4.58607 13.7464 7.11011 14.7614 9.80822C15.2834 11.1718 14.7904 12.9125 14.7614 14.4791C13.1954 14.3341 11.6003 14.16 10.0923 14.015C10.0923 17.1192 10.0343 21.0068 10.0923 24.8654C10.1503 26.9253 9.88929 28.8981 7.51123 28.9851C4.90116 29.0722 4.49511 27.0703 4.52411 24.8654C4.58211 21.0358 4.52411 17.2063 4.52411 13.8409L4.58212 13.8119Z" fill="#017E84"/>
</svg>
