<svg width="163" height="235" viewBox="0 0 163 235" fill="none" xmlns="http://www.w3.org/2000/svg">
<path d="M149.449 216.825C104.315 197.58 69.7756 169.142 43.8484 130.368C18.0067 91.7226 5.81189 48.4527 3.81494 0.00933997C-7.55874 17.4887 9.00901 86.7683 31.697 126.157C53.796 164.485 84.7677 193.829 124.856 217.374C115.943 218.24 109.375 218.375 103.102 219.803C100.267 220.411 97.9886 223.664 95.5 225.754C97.8917 227.856 99.9845 231.309 102.805 231.975C119.201 235.911 135.789 235.629 152.313 232.265C161.127 230.46 163.655 227.191 162.018 218.231C159.987 207.039 157.706 195.863 154.727 184.925C153.956 182.236 149.772 180.462 147.166 178.316C145.87 181.254 143.066 184.445 143.492 187.176C144.801 196.428 147.143 205.555 149.595 216.989L149.449 216.825Z" fill="#D7DADD"/>
</svg>
