<svg fill="none" height="155" viewBox="0 0 150 155" width="150" xmlns="http://www.w3.org/2000/svg"><path d="m117.637 134.11c6.249-4.538 11.065-7.949 15.826-11.42 3.035-2.188 6.366-3.501 8.977.186 2.505 3.51.868 6.344-2.347 8.695-9.154 6.446-18.149 13.129-27.354 19.459-5.11 3.567-7.97 2.443-9.803-2.979-3.3216-9.737-6.7067-19.363-10.1459-29.05-1.3457-3.792-3.0157-7.946 2.0675-9.911 4.8518-1.92 6.8764 2.023 8.5734 5.662 1.649 3.465 3.181 6.981 5.383 11.907 6.55-17.863 11.105-34.8012 9.929-52.6709-.51-7.6997-1.7-15.5496-4.181-22.7805-15.135-44.08541-69.3597-54.55704-100.6742-19.6748-1.7606 1.9113-3.4671 3.8828-5.17058 5.7971l-2.15991-1.3734c1.09365-2.29 1.97102-4.8205 3.39813-6.9212 16.76776-23.85299 49.45366-32.60986 77.19646-20.32655 25.7841 11.43575 37.6551 32.73175 40.8711 59.69865 2.336 19.763-1.865 38.6666-7.712 57.3116-.685 2.14-1.37 4.279-2.734 8.445z" fill="#714b67"/></svg>
