<svg width="528" height="6" viewBox="0 0 528 6" fill="none" xmlns="http://www.w3.org/2000/svg">
<g clip-path="url(#clip0_6861_821)">
<path d="M222.426 4.8449C229.171 4.77322 235.917 4.70155 242.662 4.62987C242.746 3.39023 242.822 2.14638 242.852 0.906752C236.119 0.881453 229.39 0.868805 222.657 0.860372C222.628 2.18855 222.544 3.51673 222.426 4.84912L222.426 4.8449Z" fill="#D7DADD"/>
<path d="M97.2983 1.08765C97.4036 2.71941 97.4415 4.3596 97.4121 5.9998C104.983 6.01245 112.555 5.97872 120.126 5.91968C120.261 4.31322 120.341 2.68989 120.37 1.06235C112.677 1.08765 104.988 1.10452 97.2983 1.08765Z" fill="#D7DADD"/>
<path d="M0.598292 5.21582C5.39305 5.00921 10.1878 4.88272 14.9826 4.82791C14.4938 3.24674 14.0599 1.65293 13.6554 0.0506858C9.10078 0.113933 4.55039 0.240425 -2.08635e-07 0.442815C0.252799 2.02819 0.459252 3.61779 0.598292 5.21582Z" fill="#D7DADD"/>
<path d="M19.3897 4.79392C25.6254 4.77284 31.8611 4.84452 38.1011 4.9668C37.9536 3.38563 37.9199 1.78339 37.9115 0.176925C31.2755 0.0504321 24.6353 -0.0254629 17.9951 0.012485C18.4164 1.61895 18.8757 3.21698 19.3897 4.79814L19.3897 4.79392Z" fill="#D7DADD"/>
<path d="M42.2975 5.05552C50.2186 5.23261 58.1396 5.46029 66.0565 5.6416C66.027 4.02671 65.9638 2.41181 65.85 0.805349C62.0875 0.737886 58.3208 0.666207 54.5583 0.569229C50.3703 0.463818 46.178 0.354191 41.9858 0.26143C42.011 1.86789 42.0869 3.46592 42.2975 5.05552Z" fill="#D7DADD"/>
<path d="M70.2614 5.7301C77.9212 5.88189 85.5852 5.95779 93.2535 5.9873C93.2788 4.34711 93.2324 2.70692 93.1145 1.07516C85.4294 1.04986 77.7443 0.982394 70.0592 0.868551C70.1687 2.48766 70.2277 4.10677 70.2614 5.7301Z" fill="#D7DADD"/>
<path d="M124.348 5.88201C133.234 5.80612 142.124 5.70071 151.006 5.60794C150.715 4.09424 150.588 2.5173 150.386 0.961433C141.787 0.986732 133.187 1.01625 124.588 1.04998C124.563 2.67331 124.483 4.2882 124.348 5.88623L124.348 5.88201Z" fill="#D7DADD"/>
<path d="M154.747 1.29027C154.941 2.55942 155 4.15323 155.328 5.56152C161.071 5.49828 166.814 5.43925 172.557 5.38022C172.75 3.91711 172.957 2.41184 173.088 0.898143C166.957 0.910793 160.823 0.931876 154.692 0.948742C154.709 1.06259 154.73 1.17643 154.747 1.29027Z" fill="#D7DADD"/>
<path d="M176.753 5.32977C183.364 5.25809 189.979 5.19063 196.589 5.11895C196.311 4.17025 196.13 3.18782 195.966 2.30658C195.882 1.85121 195.81 1.3621 195.743 0.856128C189.562 0.860345 183.385 0.872995 177.204 0.885644C177.094 2.36983 176.93 3.85402 176.753 5.33398L176.753 5.32977Z" fill="#D7DADD"/>
<path d="M200.491 3.32244C200.626 3.81998 200.731 4.3892 200.976 4.84879C201.026 4.94577 201.072 5.01324 201.11 5.07227C206.815 5.01324 212.52 4.94999 218.225 4.89096C218.356 3.54591 218.448 2.20087 218.478 0.855828C212.305 0.851613 206.133 0.855829 199.96 0.855829C200.112 1.68647 200.272 2.51289 200.491 3.32244Z" fill="#D7DADD"/>
<path d="M246.854 4.5835C251.236 4.53712 255.618 4.49073 260 4.44435C259.954 3.28905 259.882 2.13375 259.781 0.982659C255.53 0.957361 251.278 0.940495 247.027 0.923629C246.998 2.14218 246.926 3.36495 246.85 4.5835L246.854 4.5835Z" fill="#D7DADD"/>
</g>
<g clip-path="url(#clip1_6861_821)">
<path d="M306.43 1.1551C299.71 1.22677 292.991 1.29845 286.271 1.37013C286.187 2.60977 286.112 3.85362 286.082 5.09325C292.789 5.11855 299.492 5.1312 306.199 5.13963C306.228 3.81145 306.312 2.48327 306.43 1.15088L306.43 1.1551Z" fill="#D7DADD"/>
<path d="M431.076 4.91236C430.971 3.28059 430.933 1.6404 430.963 0.000202066C423.42 -0.0124472 415.878 0.0212845 408.336 0.0803147C408.202 1.68678 408.122 3.31011 408.093 4.93766C415.756 4.91236 423.416 4.89549 431.076 4.91236Z" fill="#D7DADD"/>
<path d="M527.404 0.78418C522.628 0.990785 517.851 1.11728 513.075 1.17209C513.562 2.75326 513.994 4.34707 514.397 5.94932C518.934 5.88607 523.467 5.75958 528 5.55719C527.748 3.97181 527.543 2.38221 527.404 0.78418Z" fill="#D7DADD"/>
<path d="M508.685 1.20608C502.473 1.22716 496.261 1.15548 490.045 1.0332C490.192 2.61437 490.226 4.21662 490.234 5.82308C496.845 5.94957 503.459 6.02547 510.074 5.98752C509.654 4.38106 509.197 2.78303 508.685 1.20186L508.685 1.20608Z" fill="#D7DADD"/>
<path d="M485.865 0.944484C477.975 0.767393 470.084 0.539706 462.198 0.358399C462.227 1.9733 462.29 3.58819 462.403 5.19466C466.151 5.26212 469.903 5.3338 473.652 5.43078C477.823 5.53619 482 5.64582 486.176 5.73858C486.151 4.13211 486.075 2.53408 485.865 0.944484Z" fill="#D7DADD"/>
<path d="M458.009 0.269898C450.378 0.118106 442.744 0.0422106 435.105 0.0126956C435.08 1.65289 435.126 3.29309 435.244 4.92485C442.899 4.95015 450.555 5.01761 458.21 5.13146C458.101 3.51234 458.042 1.89323 458.009 0.269898Z" fill="#D7DADD"/>
<path d="M404.13 0.117986C395.279 0.193882 386.423 0.299293 377.575 0.392055C377.865 1.90576 377.991 3.48271 378.192 5.03857C386.759 5.01327 395.325 4.98376 403.891 4.95003C403.916 3.3267 403.996 1.7118 404.13 0.11377L404.13 0.117986Z" fill="#D7DADD"/>
<path d="M373.848 4.70973C373.655 3.44058 373.596 1.84677 373.269 0.438477C367.548 0.501723 361.828 0.560754 356.107 0.619784C355.914 2.08289 355.708 3.58816 355.578 5.10186C361.685 5.08921 367.796 5.06813 373.903 5.05126C373.886 4.93742 373.865 4.82358 373.848 4.70973Z" fill="#D7DADD"/>
<path d="M351.927 0.670232C345.341 0.741912 338.752 0.809375 332.167 0.881054C332.444 1.82975 332.624 2.81219 332.788 3.69342C332.872 4.1488 332.943 4.6379 333.01 5.14388C339.167 5.13966 345.32 5.12701 351.478 5.11436C351.587 3.63017 351.75 2.14599 351.927 0.666016L351.927 0.670232Z" fill="#D7DADD"/>
<path d="M328.28 2.67756C328.146 2.18002 328.041 1.6108 327.797 1.15121C327.747 1.05423 327.701 0.986765 327.663 0.927734C321.98 0.986765 316.297 1.05001 310.614 1.10904C310.484 2.45409 310.392 3.79913 310.363 5.14418C316.511 5.14839 322.66 5.14418 328.809 5.14418C328.658 4.31354 328.498 3.48711 328.28 2.67756Z" fill="#D7DADD"/>
<path d="M282.095 1.4165C277.73 1.46288 273.365 1.50927 269 1.55565C269.046 2.71095 269.118 3.86626 269.218 5.01735C273.453 5.04264 277.688 5.05951 281.923 5.07638C281.952 3.85782 282.024 2.63506 282.099 1.4165L282.095 1.4165Z" fill="#D7DADD"/>
</g>
<defs>
<clipPath id="clip0_6861_821">
<rect width="5.99999" height="260" fill="white" transform="translate(0 6) rotate(-90)"/>
</clipPath>
<clipPath id="clip1_6861_821">
<rect width="6" height="259" fill="white" transform="translate(528) rotate(90)"/>
</clipPath>
</defs>
</svg>
