<svg width="62" height="67" viewBox="0 0 62 67" fill="none" xmlns="http://www.w3.org/2000/svg">
<path d="M23.3766 49.0774C21.8457 50.4324 20.2985 51.7626 18.5347 53.3052C16.7177 45.3029 15.8807 37.441 19.099 29.8035C23.6097 19.0863 30.9665 10.7673 41.9438 6.57574C46.2241 4.91466 51.203 5.13879 55.8288 4.38731C57.6295 4.09783 59.376 3.45345 61.1128 2.95737C61.0521 2.42935 61.0326 1.90993 60.9719 1.38191C58.4759 1.09671 55.9993 0.514965 53.5327 0.600908C42.3632 0.90876 33.6796 6.65306 25.9534 13.9716C22.1986 17.5246 18.8174 21.6496 15.8803 25.9102C10.5082 33.6776 8.86242 42.4166 10.633 51.7619C10.8606 52.926 10.9809 54.0892 11.1663 55.3518C7.71947 54.4815 5.51065 47.7287 0.524999 53.9663C5.4319 58.1048 10.223 62.2836 15.2479 66.1676C15.8207 66.6094 18.61 65.603 18.9986 64.675C21.0673 59.8464 22.6594 54.8324 24.4325 49.8777C24.0805 49.6109 23.7037 49.3604 23.3517 49.0936L23.3766 49.0774Z" fill="#F9B85F"/>
</svg>
