<svg width="46" height="93" viewBox="0 0 46 93" fill="none" xmlns="http://www.w3.org/2000/svg">
<path d="M18.9521 74.541C18.1516 58.651 17.4082 44.4186 16.7792 30.129C16.4361 22.3555 16.0931 14.6392 16.0931 6.86565C16.0931 4.80796 17.3511 2.75026 19.3524 0.806885C25.1276 24.1274 24.7845 48.0196 28.0438 72.4261C31.7033 69.6254 34.2764 66.9389 37.4785 65.4528C39.4798 64.5383 43.3109 64.424 44.5117 65.6815C45.7697 66.9961 45.9412 71.1686 44.7404 72.7119C39.6514 79.3994 34.1049 85.8583 28.1581 91.8028C26.843 93.0602 22.1542 92.9459 20.6103 91.5741C14.4349 86.2012 8.77402 80.1996 3.05599 74.3123C0.540058 71.6831 -1.28971 67.9678 2.427 65.5671C4.19959 64.424 8.25938 65.3957 10.5466 66.6531C13.2341 68.0821 15.1782 70.94 18.8949 74.5981L18.9521 74.541Z" fill="#D8DADD"/>
</svg>
