<svg width="36" height="75" viewBox="0 0 36 75" fill="none" xmlns="http://www.w3.org/2000/svg">
<path d="M3.37569 0.164551C4.57648 19.8841 8.06449 38.5177 22.0165 55.0936C22.3596 52.5786 22.0737 50.8067 22.817 49.8922C24.2465 48.1203 26.305 45.6625 28.0204 45.7197C29.793 45.7768 32.4805 48.2918 32.9379 50.1209C34.3674 56.0653 35.2251 62.1812 35.6826 68.24C35.9685 72.4126 33.0523 74.5846 28.9925 73.9558C21.559 72.7555 14.1828 71.3265 6.86369 69.6117C3.20415 68.7544 0.516663 66.411 1.88899 62.1812C3.26132 57.8944 6.63496 57.8943 10.2945 59.1518C11.1522 59.4376 12.0671 59.6662 13.954 60.1807C3.08978 40.9755 -4.34365 21.7132 3.37569 0.164551Z" fill="#D8DADD"/>
</svg>
