<svg width="41" height="177" viewBox="0 0 41 177" fill="none" xmlns="http://www.w3.org/2000/svg">
<path d="M29.0462 154.492C30.0179 154.606 30.3037 154.721 30.4752 154.606C33.6761 152.777 36.6483 147.059 40.3636 152.033C41.6211 153.749 38.9346 159.238 36.9912 162.326C34.4763 166.328 31.1039 169.874 27.8459 173.304C23.5019 177.822 19.9009 177.193 17.4431 171.532C15.3283 166.729 13.1563 161.926 11.8417 156.894C11.0986 154.092 12.1274 150.833 12.2989 147.802C15.1568 148.374 18.0147 148.946 21.1013 149.575C22.5302 144.257 24.3593 137.624 26.1883 130.991C27.1029 131.163 28.0746 131.334 28.9891 131.506L28.9891 154.435L29.0462 154.492Z" fill="#714B67"/>
<path d="M2.63904 0.619965C4.63958 2.10665 7.44032 3.13589 8.52633 5.1372C13.5563 14.2289 18.4147 23.4349 22.5872 32.9268C23.3303 34.6994 20.701 37.9587 19.615 40.4746C17.6717 38.7592 14.8137 37.4441 13.842 35.2712C9.89813 26.4083 6.5258 17.3166 3.03914 8.28212C2.23893 6.16644 1.66734 3.9936 0.981445 1.82075C1.55303 1.42048 2.12461 1.02023 2.63904 0.619965Z" fill="#714B67"/>
<path d="M18.643 57.9717C18.643 55.1127 18.3001 53.3973 18.7573 51.9677C19.1574 50.7098 20.3577 49.6805 21.2151 48.5369C22.1868 49.2803 23.7872 49.9093 24.073 50.8813C25.7306 57.2283 27.3882 63.5753 28.3599 69.9795C28.5885 71.409 26.0736 73.1816 24.8161 74.8399C23.2156 73.5247 20.6436 72.4383 20.2434 70.8373C19.2146 66.2628 19.0431 61.4597 18.7001 57.9717L18.643 57.9717Z" fill="#714B67"/>
<path d="M26.3595 89.2488C27.274 90.1065 28.8744 90.9071 29.0459 91.9363C30.0176 98.4549 30.9893 105.031 31.2751 111.664C31.3322 113.15 28.7601 114.751 27.4455 116.295C26.0165 115.037 23.3872 113.779 23.3872 112.521C23.2158 104.973 23.673 97.3685 23.9017 89.8207C24.7591 89.6491 25.6164 89.5347 26.4166 89.3632L26.3595 89.2488Z" fill="#714B67"/>
</svg>
