<svg width="126" height="131" viewBox="0 0 126 131" fill="none" xmlns="http://www.w3.org/2000/svg">
<path d="M66.5712 1.64882C67.7716 4.58912 69.2707 7.45533 70.0461 10.4901C76.1382 33.4393 75.3066 56.6507 72.5879 79.8817C71.6407 87.9601 70.4543 95.9993 69.056 106.093C71.4353 102.549 72.3374 100.28 73.9872 98.9518C75.3457 97.9038 78.313 97.0366 79.2593 97.7646C80.6788 98.8565 82.2261 102.181 81.5654 103.22C76.3725 111.465 70.8734 119.579 64.9141 127.248C64.1402 128.228 58.7885 127.641 57.7866 126.249C53.1442 119.797 49.0716 112.865 45.3572 105.746C44.5408 104.22 46.2316 101.383 46.7551 99.1751C49.1099 99.8054 51.8878 99.8493 53.6339 101.199C55.6602 102.841 56.6806 105.629 59.1334 109.429C66.8674 73.0086 71.5895 37.9805 62.5926 2.1871C63.9009 1.95014 65.2425 1.75957 66.5508 1.52262L66.5712 1.64882Z" fill="#D8DADD"/>
</svg>
