<svg width="210" height="278" viewBox="0 0 210 278" fill="none" xmlns="http://www.w3.org/2000/svg">
<path d="M185.062 263.747C189.922 261.061 194.725 257.917 199.871 255.86C202.216 254.945 206.79 255.059 207.934 256.603C210.621 260.032 208.105 263.004 204.446 264.433C196.384 267.577 188.264 270.549 180.144 273.579C178.429 274.207 176.542 274.493 174.998 275.35C167.736 279.58 164.591 278.266 163.734 270.035C162.59 259.346 161.446 248.658 161.103 237.969C161.046 235.454 163.676 231.281 165.849 230.596C170.424 229.167 172.025 233.282 172.482 237.169C173.111 242.599 173.511 248.029 174.14 255.116C182.946 241.341 188.378 227.909 191.752 213.734C205.475 156.29 192.381 103.704 161.389 54.8912C152.412 40.7731 139.603 30.7705 121.878 29.5702C117.703 29.2844 113.472 30.1989 107.926 30.6562C118.961 43.6311 127.024 56.606 130.683 71.6957C132.627 79.6407 133.943 87.8715 134.114 95.988C134.286 105.591 130.855 114.107 121.134 118.165C111.242 122.338 102.093 119.937 94.3739 113.135C82.7091 102.79 77.0482 89.1291 75.39 73.9821C73.3315 55.52 79.2211 39.8015 93.9736 27.0552C65.4406 4.36338 34.3345 0.419467 0.598165 10.5365C0.426624 9.96487 0.25506 9.33615 0.0835196 8.76456C2.08483 7.85004 3.9718 6.76404 6.08747 6.07813C38.0513 -4.38183 67.8422 -0.0378359 95.1744 19.6246C98.6624 22.1396 101.235 22.7683 105.524 21.2822C121.363 15.7951 136.573 18.8244 149.839 28.2556C157.73 33.8571 165.506 40.716 170.652 48.7753C203.703 100.561 217.94 156.461 202.731 217.335C198.785 233.053 191.294 247.914 185.176 263.862L185.062 263.747ZM101.922 34.7716C73.9033 54.8341 85.7396 95.4735 102.894 107.42C114.215 115.307 125.423 109.535 125.766 95.1306C126.28 71.9816 117.246 52.2619 101.922 34.7144L101.922 34.7716Z" fill="#D8DADD"/>
</svg>
